<svg width="16" height="16" viewBox="0 0 16 16" fill="none" xmlns="http://www.w3.org/2000/svg">
<path fill-rule="evenodd" clip-rule="evenodd" d="M1.35466 7.99996C1.35446 7.91074 1.33694 7.82162 1.30209 7.73765L0.821133 6.57313C0.719522 6.32788 0.667035 6.06462 0.666992 5.79915C0.66695 5.53354 0.719243 5.27053 0.820885 5.02513C0.922526 4.77974 1.07152 4.55678 1.25937 4.36899C1.44716 4.18125 1.67009 4.03235 1.91544 3.93078L3.07806 3.44919C3.24643 3.37957 3.38073 3.24587 3.45082 3.07769L3.93252 1.91472C4.13771 1.41933 4.53129 1.02573 5.02668 0.820529C5.52206 0.615325 6.07868 0.615325 6.57407 0.820529L7.73614 1.3019C7.90477 1.37151 8.09434 1.37142 8.26285 1.3015L8.26417 1.30095L9.42727 0.821237C9.92249 0.616312 10.4792 0.616245 10.9744 0.821354C11.4697 1.02652 11.8632 1.42 12.0684 1.91526L12.5385 3.05031C12.5427 3.05927 12.5467 3.06835 12.5505 3.07757C12.6202 3.24612 12.7539 3.38012 12.9223 3.45016L14.0856 3.93203C14.581 4.13723 14.9746 4.53083 15.1798 5.02622C15.385 5.52161 15.385 6.07822 15.1798 6.57361L14.6982 7.73628C14.6632 7.82072 14.6457 7.91068 14.6457 8.00016C14.6457 8.08964 14.6632 8.1792 14.6982 8.26364L15.1798 9.42631C15.385 9.9217 15.385 10.4783 15.1798 10.9737C14.9746 11.4691 14.581 11.8627 14.0856 12.0679L12.9223 12.5498C12.7539 12.6198 12.6202 12.7538 12.5505 12.9224C12.5467 12.9316 12.5427 12.9407 12.5385 12.9496L12.0684 14.0847C11.8632 14.5799 11.4697 14.9734 10.9744 15.1786C10.4792 15.3837 9.92249 15.3836 9.42727 15.1787L8.26417 14.699L8.26285 14.6984C8.09434 14.6285 7.90477 14.6284 7.73614 14.698L6.57407 15.1794C6.07868 15.3846 5.52206 15.3846 5.02668 15.1794C4.53129 14.9742 4.13771 14.5806 3.93252 14.0852L3.45082 12.9222C3.38073 12.754 3.24643 12.6204 3.07806 12.5507L1.91544 12.0691C1.67009 11.9676 1.44716 11.8187 1.25937 11.6309C1.07152 11.4431 0.922526 11.2202 0.820885 10.9748C0.719243 10.7294 0.66695 10.4664 0.666992 10.2008C0.667035 9.9353 0.719522 9.67204 0.821133 9.42679L1.30209 8.26227C1.33694 8.17829 1.35446 8.08918 1.35466 7.99996ZM10.8051 6.8047C11.0654 6.54435 11.0654 6.12224 10.8051 5.86189C10.5447 5.60154 10.1226 5.60154 9.86225 5.86189L7.33366 8.39048L6.47173 7.52855C6.21138 7.2682 5.78927 7.2682 5.52892 7.52855C5.26857 7.7889 5.26857 8.21101 5.52892 8.47136L6.86225 9.8047C7.1226 10.065 7.54471 10.065 7.80506 9.8047L10.8051 6.8047Z" fill="white"/>
</svg>
