<svg width="40" height="40" viewBox="0 0 40 40" fill="none" xmlns="http://www.w3.org/2000/svg">
<path fill-rule="evenodd" clip-rule="evenodd" d="M21.3976 11.6667H8.60245C7.7239 11.6667 6.96592 11.6667 6.34164 11.7177C5.68274 11.7715 5.02737 11.8904 4.39674 12.2117C3.45593 12.6911 2.69103 13.456 2.21166 14.3968C1.89034 15.0274 1.77148 15.6828 1.71764 16.3417C1.66664 16.966 1.66666 17.7239 1.66669 18.6024V31.3977C1.66666 32.2762 1.66664 33.0342 1.71764 33.6585C1.77148 34.3174 1.89034 34.9727 2.21166 35.6034C2.69103 36.5442 3.45593 37.3091 4.39674 37.7885C5.02737 38.1098 5.68274 38.2286 6.34164 38.2825C6.96589 38.3335 7.72377 38.3334 8.60228 38.3334H21.3976C22.2761 38.3334 23.0342 38.3335 23.6584 38.2825C24.3173 38.2286 24.9727 38.1098 25.6033 37.7885C26.5441 37.3091 27.309 36.5442 27.7884 35.6034C28.1097 34.9727 28.2286 34.3174 28.2824 33.6585C28.3334 33.0342 28.3334 32.2762 28.3334 31.3976V18.6025C28.3334 17.724 28.3334 16.966 28.2824 16.3417C28.2286 15.6828 28.1097 15.0274 27.7884 14.3968C27.309 13.456 26.5441 12.6911 25.6033 12.2117C24.9727 11.8904 24.3173 11.7715 23.6584 11.7177C23.0341 11.6667 22.2762 11.6667 21.3976 11.6667ZM22.0119 22.0119C22.6627 21.3611 22.6627 20.3058 22.0119 19.6549C21.361 19.004 20.3057 19.004 19.6548 19.6549L13.3334 25.9764L11.1785 23.8216C10.5277 23.1707 9.47238 23.1707 8.82151 23.8216C8.17064 24.4724 8.17064 25.5277 8.82151 26.1786L12.1548 29.5119C12.8057 30.1628 13.861 30.1628 14.5119 29.5119L22.0119 22.0119Z" fill="#868C98"/>
<path d="M31.3976 1.66675H18.6025C17.7239 1.66672 16.9659 1.6667 16.3416 1.7177C15.6827 1.77154 15.0274 1.8904 14.3967 2.21172C13.4559 2.69109 12.691 3.45599 12.2117 4.3968C11.8903 5.02743 11.7715 5.6828 11.7176 6.34171C11.6719 6.90134 11.6672 7.56839 11.6667 8.33346L21.4681 8.33344C22.2825 8.33324 23.1655 8.33303 23.9298 8.39548C24.7949 8.46616 25.9377 8.64108 27.1166 9.24174C28.6846 10.0407 29.9595 11.3155 30.7584 12.8835C31.3591 14.0624 31.534 15.2053 31.6047 16.0703C31.6671 16.8346 31.6669 17.7176 31.6667 18.532L31.6667 28.3334C32.4317 28.3329 33.0988 28.3282 33.6584 28.2825C34.3173 28.2286 34.9727 28.1098 35.6033 27.7885C36.5441 27.3091 37.309 26.5442 37.7884 25.6034C38.1097 24.9727 38.2286 24.3174 38.2824 23.6585C38.3334 23.0342 38.3334 22.2763 38.3334 21.3978V8.60255C38.3334 7.72404 38.3334 6.96595 38.2824 6.34171C38.2286 5.6828 38.1097 5.02743 37.7884 4.3968C37.309 3.45599 36.5441 2.69109 35.6033 2.21172C34.9727 1.8904 34.3173 1.77154 33.6584 1.7177C33.0341 1.6667 32.2762 1.66672 31.3976 1.66675Z" fill="#868C98"/>
</svg>
