<svg width="33" height="32" viewBox="0 0 33 32" fill="none" xmlns="http://www.w3.org/2000/svg">
<g id="Group 20">
<path id="Vector" d="M30.3125 15.75H30V25.125H30.3125C31.5187 25.125 32.5 24.1437 32.5 22.9375V17.9375C32.5 16.7313 31.5187 15.75 30.3125 15.75Z" fill="white"/>
<path id="Vector_2" d="M0.5 17.9375V22.9375C0.5 24.1437 1.48131 25.125 2.6875 25.125H3V15.75H2.6875C1.48131 15.75 0.5 16.7313 0.5 17.9375Z" fill="white"/>
<path id="Vector_3" d="M22.1251 7.62501H21.8126V5.46376C22.9038 5.07675 23.6876 4.03469 23.6876 2.8125C23.6876 1.26169 22.426 0 20.8751 0C19.3243 0 18.0626 1.26169 18.0626 2.8125C18.0626 4.03469 18.8464 5.07675 19.9376 5.46376V7.62501H13.0626V5.46376C14.1538 5.07675 14.9376 4.03469 14.9376 2.8125C14.9376 1.26169 13.6759 0 12.1251 0C10.5743 0 9.31263 1.26169 9.31263 2.8125C9.31263 4.03469 10.0964 5.07675 11.1876 5.46376V7.62501H10.8751C9.65294 7.62501 8.61088 8.40882 8.22388 9.50001H24.7764C24.3894 8.40882 23.3473 7.62501 22.1251 7.62501Z" fill="white"/>
<path id="Subtract" fill-rule="evenodd" clip-rule="evenodd" d="M24.6875 11.375H8.3125C6.414 11.375 4.875 12.914 4.875 14.8125V26.0625C4.875 27.961 6.414 29.5 8.3125 29.5H18.7535L22.9099 31.8751C23.5349 32.2322 24.3125 31.781 24.3125 31.0611V29.5H24.6875C26.586 29.5 28.125 27.961 28.125 26.0625V14.8125C28.125 12.914 26.586 11.375 24.6875 11.375ZM8.95957 18.72C8.95957 18.1014 9.46101 17.6 10.0796 17.6H23.6557C24.2742 17.6 24.7757 18.1014 24.7757 18.72C24.7757 19.3386 24.2742 19.84 23.6557 19.84H10.0796C9.46101 19.84 8.95957 19.3386 8.95957 18.72ZM10.0796 21.12C9.46101 21.12 8.95957 21.6215 8.95957 22.24C8.95957 22.8586 9.46101 23.36 10.0796 23.36H17.4028C18.0214 23.36 18.5228 22.8586 18.5228 22.24C18.5228 21.6215 18.0214 21.12 17.4028 21.12H10.0796Z" fill="white"/>
</g>
</svg>
