<svg width="14" height="14" viewBox="0 0 14 14" fill="none" xmlns="http://www.w3.org/2000/svg">
<g clip-path="url(#clip0_2323_154)">
<path fill-rule="evenodd" clip-rule="evenodd" d="M3.00001 0.600098C3.21218 0.600098 3.41566 0.684383 3.56569 0.834412C3.71572 0.984441 3.80001 1.18792 3.80001 1.4001V2.2001H4.60001C4.81218 2.2001 5.01566 2.28438 5.16569 2.43441C5.31572 2.58444 5.40001 2.78792 5.40001 3.0001C5.40001 3.21227 5.31572 3.41575 5.16569 3.56578C5.01566 3.71581 4.81218 3.8001 4.60001 3.8001H3.80001V4.6001C3.80001 4.81227 3.71572 5.01575 3.56569 5.16578C3.41566 5.31581 3.21218 5.4001 3.00001 5.4001C2.78783 5.4001 2.58435 5.31581 2.43432 5.16578C2.28429 5.01575 2.20001 4.81227 2.20001 4.6001V3.8001H1.40001C1.18783 3.8001 0.98435 3.71581 0.834321 3.56578C0.684292 3.41575 0.600006 3.21227 0.600006 3.0001C0.600006 2.78792 0.684292 2.58444 0.834321 2.43441C0.98435 2.28438 1.18783 2.2001 1.40001 2.2001H2.20001V1.4001C2.20001 1.18792 2.28429 0.984441 2.43432 0.834412C2.58435 0.684383 2.78783 0.600098 3.00001 0.600098ZM3.00001 8.6001C3.21218 8.6001 3.41566 8.68438 3.56569 8.83441C3.71572 8.98444 3.80001 9.18792 3.80001 9.4001V10.2001H4.60001C4.81218 10.2001 5.01566 10.2844 5.16569 10.4344C5.31572 10.5844 5.40001 10.7879 5.40001 11.0001C5.40001 11.2123 5.31572 11.4158 5.16569 11.5658C5.01566 11.7158 4.81218 11.8001 4.60001 11.8001H3.80001V12.6001C3.80001 12.8123 3.71572 13.0158 3.56569 13.1658C3.41566 13.3158 3.21218 13.4001 3.00001 13.4001C2.78783 13.4001 2.58435 13.3158 2.43432 13.1658C2.28429 13.0158 2.20001 12.8123 2.20001 12.6001V11.8001H1.40001C1.18783 11.8001 0.98435 11.7158 0.834321 11.5658C0.684292 11.4158 0.600006 11.2123 0.600006 11.0001C0.600006 10.7879 0.684292 10.5844 0.834321 10.4344C0.98435 10.2844 1.18783 10.2001 1.40001 10.2001H2.20001V9.4001C2.20001 9.18792 2.28429 8.98444 2.43432 8.83441C2.58435 8.68438 2.78783 8.6001 3.00001 8.6001ZM8.60001 0.600098C8.77656 0.600041 8.94817 0.658388 9.0881 0.766047C9.22802 0.873706 9.32841 1.02463 9.37361 1.1953L10.3168 4.7601L13 6.3073C13.1216 6.37751 13.2226 6.4785 13.2928 6.60011C13.363 6.72173 13.4 6.85967 13.4 7.0001C13.4 7.14052 13.363 7.27847 13.2928 7.40008C13.2226 7.52169 13.1216 7.62268 13 7.6929L10.3168 9.2409L9.37281 12.8049C9.32753 12.9754 9.22716 13.1262 9.08732 13.2337C8.94748 13.3413 8.77602 13.3996 8.59961 13.3996C8.42319 13.3996 8.25173 13.3413 8.11189 13.2337C7.97205 13.1262 7.87169 12.9754 7.82641 12.8049L6.88321 9.2401L4.20001 7.6929C4.0784 7.62268 3.97742 7.52169 3.90721 7.40008C3.837 7.27847 3.80004 7.14052 3.80004 7.0001C3.80004 6.85967 3.837 6.72173 3.90721 6.60011C3.97742 6.4785 4.0784 6.37751 4.20001 6.3073L6.88321 4.7593L7.82721 1.1953C7.87237 1.02476 7.97263 0.873937 8.1124 0.766291C8.25216 0.658646 8.42359 0.600217 8.60001 0.600098Z" fill="white"/>
</g>
<defs>
<clipPath id="clip0_2323_154">
<rect width="14" height="13" fill="white" transform="translate(0 0.5)"/>
</clipPath>
</defs>
</svg>
