<svg width="16" height="16" viewBox="0 0 16 16" fill="none" xmlns="http://www.w3.org/2000/svg">
<path fill-rule="evenodd" clip-rule="evenodd" d="M14.4498 11.5079C14.7215 11.7564 14.7404 12.178 14.492 12.4498L13.8253 13.1792C13.3522 13.6965 12.6972 14 12.0001 14C11.3032 14 10.6484 13.6968 10.1753 13.1797C9.94073 12.9242 9.63654 12.7934 9.33344 12.7934C9.03019 12.7934 8.72587 12.9243 8.4912 13.1801C8.24228 13.4514 7.82056 13.4695 7.54926 13.2206C7.27796 12.9717 7.25982 12.55 7.50874 12.2787C7.98229 11.7625 8.63695 11.46 9.33344 11.46C10.0299 11.46 10.6846 11.7625 11.1581 12.2787L11.1589 12.2795C11.3931 12.5356 11.6971 12.6667 12.0001 12.6667C12.303 12.6667 12.607 12.5356 12.8412 12.2796L13.5079 11.5502C13.7563 11.2784 14.178 11.2595 14.4498 11.5079Z" fill="#667085"/>
<path fill-rule="evenodd" clip-rule="evenodd" d="M10.5286 1.86192C11.3412 1.04928 12.6588 1.04928 13.4714 1.86192C14.284 2.67455 14.284 3.99209 13.4714 4.80473L5.09625 13.1799C5.08305 13.1931 5.06997 13.2062 5.057 13.2192C4.86537 13.4112 4.69641 13.5804 4.49272 13.7053C4.31377 13.8149 4.11868 13.8957 3.91461 13.9447C3.68231 14.0005 3.44315 14.0003 3.17188 14C3.15352 14 3.13501 14 3.11635 14H1.99999C1.6318 14 1.33332 13.7015 1.33332 13.3333V12.217C1.33332 12.1983 1.3333 12.1798 1.33329 12.1614C1.33303 11.8902 1.33281 11.651 1.38858 11.4187C1.43757 11.2146 1.51838 11.0196 1.62804 10.8406C1.75286 10.6369 1.92214 10.468 2.11413 10.2763C2.12713 10.2634 2.14023 10.2503 2.15342 10.2371L10.5286 1.86192Z" fill="#667085"/>
</svg>
