<svg width="48" height="48" viewBox="0 0 48 48" fill="none" xmlns="http://www.w3.org/2000/svg">
<g id="face-sad">
<path id="Solid" d="M34.0002 30.5L33.9901 30.4871L33.7834 30.2295L33.7835 30.2294L33.7764 30.221C33.6528 30.0737 33.4795 29.8761 33.2583 29.6453C32.8179 29.1858 32.176 28.5821 31.3456 27.9782C29.6946 26.7775 27.1891 25.5 24.0002 25.5C20.8112 25.5 18.3057 26.7775 16.6547 27.9782C15.8244 28.5821 15.1824 29.1858 14.7421 29.6453C14.5209 29.8761 14.3476 30.0737 14.2239 30.221C14.1475 30.312 14.0747 30.4036 14.0048 30.494L14.0047 30.494L14.0002 30.5C13.1717 31.6046 13.3956 33.1716 14.5002 34C15.6001 34.825 17.1587 34.6065 17.9898 33.5138L17.9952 33.5069C17.9954 33.5066 17.9956 33.5064 17.9958 33.5061C18.0051 33.4943 18.0245 33.4702 18.0538 33.4353C18.1137 33.3639 18.2138 33.249 18.352 33.1048C18.6304 32.8143 19.051 32.418 19.5956 32.0219C20.6943 31.2228 22.1888 30.5 24.0002 30.5C25.8115 30.5 27.306 31.2228 28.4047 32.0219C28.9494 32.418 29.3699 32.8143 29.6483 33.1048C29.7865 33.249 29.8866 33.3639 29.9466 33.4354C29.9764 33.471 29.9961 33.4954 30.0051 33.5069L30.0106 33.5138C30.8417 34.6065 32.4002 34.825 33.5002 34C34.6047 33.1716 34.8286 31.6046 34.0002 30.5ZM2.5 24C2.5 12.1259 12.1259 2.5 24 2.5C35.8741 2.5 45.5 12.1259 45.5 24C45.5 35.8741 35.8741 45.5 24 45.5C12.1259 45.5 2.5 35.8741 2.5 24ZM21.9385 20.0588C22.8104 18.9882 22.6494 17.4135 21.5788 16.5416C20.5082 15.6697 18.9335 15.8307 18.0616 16.9013C17.6855 17.3631 17.2869 17.5 17 17.5C16.7378 17.5 16.3466 17.3834 15.9093 16.8661C15.0179 15.8116 13.4405 15.6795 12.3861 16.5708C11.3316 17.4622 11.1995 19.0396 12.0908 20.094C13.2916 21.5144 14.9998 22.5 17 22.5C18.9751 22.5 20.736 21.5353 21.9385 20.0588ZM35.9385 20.0588C36.8104 18.9882 36.6494 17.4135 35.5788 16.5416C34.5082 15.6697 32.9335 15.8307 32.0616 16.9013C31.6855 17.3631 31.2869 17.5 31 17.5C30.7378 17.5 30.3466 17.3834 29.9093 16.8661C29.0179 15.8116 27.4405 15.6795 26.3861 16.5708C25.3316 17.4622 25.1995 19.0396 26.0908 20.094C27.2916 21.5144 28.9998 22.5 31 22.5C32.9751 22.5 34.736 21.5353 35.9385 20.0588Z" fill="#DF1C41" fill-opacity="0.9" stroke="url(#paint1_linear_2839_21933)" stroke-linecap="round" stroke-linejoin="round"/>
</g>
<defs>
<linearGradient id="paint0_linear_2839_21933" x1="24.3777" y1="-35.6493" x2="24.3777" y2="88.1599" gradientUnits="userSpaceOnUse">
<stop offset="0.313079" stop-color="#DF1C41"/>
<stop offset="1" stop-color="#DF1C41" stop-opacity="0"/>
</linearGradient>
<linearGradient id="paint1_linear_2839_21933" x1="101.664" y1="-104.793" x2="-27.7949" y2="0.229528" gradientUnits="userSpaceOnUse">
<stop stop-color="#DF1C41"/>
<stop offset="1" stop-color="#DF1C41" stop-opacity="0"/>
</linearGradient>
</defs>
</svg>
