<svg width="20" height="20" viewBox="0 0 20 20" fill="none" xmlns="http://www.w3.org/2000/svg">
<path fill-rule="evenodd" clip-rule="evenodd" d="M0.833497 5.13469C0.833483 4.69541 0.83347 4.31642 0.858973 4.00428C0.88589 3.67483 0.94532 3.34715 1.10598 3.03183C1.34567 2.56142 1.72812 2.17897 2.19852 1.93929C2.51384 1.77863 2.84152 1.7192 3.17097 1.69228C3.48312 1.66678 3.86209 1.66679 4.30137 1.6668L7.62238 1.66671C8.11701 1.66606 8.55199 1.66549 8.95195 1.80344C9.30227 1.92427 9.62134 2.12147 9.88607 2.38076C10.1883 2.6768 10.3823 3.06612 10.603 3.50882L11.3484 4.99996H14.3679C15.0387 4.99995 15.5924 4.99994 16.0434 5.03679C16.5118 5.07506 16.9424 5.1572 17.3468 5.36327C17.974 5.68285 18.4839 6.19279 18.8035 6.81999C19.0096 7.22444 19.0917 7.65502 19.13 8.12344C19.1668 8.57443 19.1668 9.12806 19.1668 9.79886V13.5344C19.1668 14.2052 19.1668 14.7588 19.13 15.2098C19.0917 15.6782 19.0096 16.1088 18.8035 16.5133C18.4839 17.1405 17.974 17.6504 17.3468 17.97C16.9424 18.1761 16.5118 18.2582 16.0434 18.2965C15.5924 18.3333 15.0387 18.3333 14.3679 18.3333H5.63243C4.96163 18.3333 4.40797 18.3333 3.95698 18.2965C3.48856 18.2582 3.05798 18.1761 2.65353 17.97C2.02632 17.6504 1.51639 17.1405 1.19681 16.5133C0.990734 16.1088 0.908597 15.6782 0.870326 15.2098C0.833478 14.7588 0.833487 14.2052 0.833497 13.5344V5.13469ZM7.51874 3.33347C8.17742 3.33347 8.30798 3.34434 8.4085 3.37902C8.52527 3.41929 8.63163 3.48503 8.71987 3.57146C8.79584 3.64586 8.86396 3.75778 9.15852 4.34691L9.48505 4.99996L2.50023 4.99996C2.50059 4.61247 2.50314 4.34759 2.5201 4.14C2.5386 3.91362 2.57 3.82968 2.59099 3.78848C2.67089 3.63168 2.79837 3.50419 2.95517 3.4243C2.99638 3.40331 3.08031 3.37191 3.30669 3.35341C3.54281 3.33412 3.85304 3.33347 4.3335 3.33347H7.51874Z" fill="#667085"/>
</svg>
