<svg width="50" height="52" viewBox="0 0 50 52" fill="none" xmlns="http://www.w3.org/2000/svg">
<g filter="url(#filter0_d_3346_13684)">
<path d="M0 25C0 11.7452 10.7452 1 24 1C37.2548 1 48 11.7452 48 25C48 38.2548 37.2548 49 24 49C10.7452 49 0 38.2548 0 25Z" fill="white"/>
<path d="M0.5 25C0.5 12.0213 11.0213 1.5 24 1.5C36.9787 1.5 47.5 12.0213 47.5 25C47.5 37.9787 36.9787 48.5 24 48.5C11.0213 48.5 0.5 37.9787 0.5 25Z" stroke="#E1E4EA"/>
<path d="M15 34C15 32.0904 15.7586 30.2591 17.1088 28.9088C18.4591 27.5585 20.2904 26.8 22.2 26.8C24.1096 26.8 25.9409 27.5585 27.2912 28.9088C28.6414 30.2591 29.4 32.0904 29.4 34H27.6C27.6 32.5678 27.0311 31.1943 26.0184 30.1816C25.0057 29.1689 23.6322 28.6 22.2 28.6C20.7678 28.6 19.3943 29.1689 18.3816 30.1816C17.3689 31.1943 16.8 32.5678 16.8 34H15ZM22.2 25.9C19.2165 25.9 16.8 23.4835 16.8 20.5C16.8 17.5165 19.2165 15.1 22.2 15.1C25.1835 15.1 27.6 17.5165 27.6 20.5C27.6 23.4835 25.1835 25.9 22.2 25.9ZM22.2 24.1C24.189 24.1 25.8 22.489 25.8 20.5C25.8 18.511 24.189 16.9 22.2 16.9C20.211 16.9 18.6 18.511 18.6 20.5C18.6 22.489 20.211 24.1 22.2 24.1ZM29.6556 27.4327C30.9204 28.0023 31.9938 28.9251 32.7467 30.0901C33.4997 31.2551 33.9001 32.6128 33.9 34H32.1C32.1002 32.9596 31.7999 31.9412 31.2352 31.0674C30.6705 30.1936 29.8654 29.5015 28.9167 29.0743L29.6547 27.4327H29.6556ZM29.0364 17.2717C29.9432 17.6454 30.7185 18.2802 31.2639 19.0953C31.8094 19.9104 32.1004 20.8692 32.1 21.85C32.1004 23.0851 31.6389 24.2757 30.8063 25.1879C29.9736 26.1002 28.83 26.6681 27.6 26.7802V24.9685C28.2668 24.873 28.8855 24.5662 29.3652 24.0932C29.8448 23.6202 30.1602 23.0059 30.265 22.3404C30.3699 21.675 30.2586 20.9934 29.9475 20.3959C29.6365 19.7983 29.1421 19.3162 28.5369 19.0204L29.0364 17.2717Z" fill="#525866"/>
</g>
<defs>
<filter id="filter0_d_3346_13684" x="-2" y="0" width="52" height="52" filterUnits="userSpaceOnUse" color-interpolation-filters="sRGB">
<feFlood flood-opacity="0" result="BackgroundImageFix"/>
<feColorMatrix in="SourceAlpha" type="matrix" values="0 0 0 0 0 0 0 0 0 0 0 0 0 0 0 0 0 0 127 0" result="hardAlpha"/>
<feOffset dy="1"/>
<feGaussianBlur stdDeviation="1"/>
<feComposite in2="hardAlpha" operator="out"/>
<feColorMatrix type="matrix" values="0 0 0 0 0.0392157 0 0 0 0 0.0509804 0 0 0 0 0.0784314 0 0 0 0.03 0"/>
<feBlend mode="normal" in2="BackgroundImageFix" result="effect1_dropShadow_3346_13684"/>
<feBlend mode="normal" in="SourceGraphic" in2="effect1_dropShadow_3346_13684" result="shape"/>
</filter>
</defs>
</svg>
