<svg width="17" height="16" viewBox="0 0 17 16" fill="none" xmlns="http://www.w3.org/2000/svg">
<path d="M3.85459 16C5.98398 16 7.70918 14.2748 7.70918 12.1454C7.70918 10.016 5.98398 8.29083 3.85459 8.29083C1.7252 8.29083 0 10.016 0 12.1454C0 14.2748 1.7252 16 3.85459 16Z" fill="#EB6161"/>
<path d="M15.9999 0C16.5027 0 16.9069 0.404188 16.9069 0.90696L16.8576 8.29081C16.8576 12.5003 13.4762 15.931 9.27659 16H9.14844V8.31053H9.17801L9.20759 0.926678C9.20759 0.423905 9.61178 0.0197148 10.1145 0.0197148H16.0098C15.9999 0.0197148 15.9999 0 15.9999 0Z" fill="#009191"/>
</svg>
