<svg width="21" height="20" viewBox="0 0 21 20" fill="none" xmlns="http://www.w3.org/2000/svg">
<g id="layout-grid-01">
<g id="Solid">
<path d="M9.35742 2.99984C9.35742 2.53313 9.35742 2.29977 9.26659 2.12151C9.1867 1.96471 9.05922 1.83723 8.90241 1.75733C8.72415 1.6665 8.4908 1.6665 8.02409 1.6665H5.3253C4.88603 1.66649 4.50704 1.66648 4.1949 1.69198C3.86545 1.7189 3.53776 1.77833 3.22245 1.93899C2.75204 2.17867 2.36959 2.56112 2.12991 3.03153C1.96925 3.34685 1.90982 3.67453 1.8829 4.00398C1.8574 4.31612 1.85741 4.69508 1.85742 5.13435V7.83317C1.85742 8.29988 1.85742 8.53324 1.94825 8.7115C2.02814 8.8683 2.15563 8.99578 2.31243 9.07568C2.49069 9.1665 2.72405 9.1665 3.19076 9.1665H8.02409C8.4908 9.1665 8.72415 9.1665 8.90241 9.07568C9.05922 8.99578 9.1867 8.8683 9.26659 8.7115C9.35742 8.53324 9.35742 8.29988 9.35742 7.83317V2.99984Z" fill="#868C98"/>
<path d="M3.19076 10.8332C2.72405 10.8332 2.49069 10.8332 2.31243 10.924C2.15563 11.0039 2.02814 11.1314 1.94825 11.2882C1.85742 11.4664 1.85742 11.6998 1.85742 12.1665V14.8653C1.85741 15.3046 1.8574 15.6836 1.8829 15.9957C1.90982 16.3252 1.96925 16.6528 2.12991 16.9681C2.36959 17.4386 2.75204 17.821 3.22245 18.0607C3.53776 18.2213 3.86545 18.2808 4.1949 18.3077C4.50704 18.3332 4.886 18.3332 5.32529 18.3332H8.02409C8.4908 18.3332 8.72416 18.3332 8.90242 18.2423C9.05922 18.1624 9.1867 18.035 9.2666 17.8782C9.35742 17.6999 9.35742 17.4665 9.35742 16.9998V12.1665C9.35742 11.6998 9.35742 11.4664 9.2666 11.2882C9.1867 11.1314 9.05922 11.0039 8.90242 10.924C8.72416 10.8332 8.4908 10.8332 8.02409 10.8332H3.19076Z" fill="#868C98"/>
<path d="M11.0241 16.9998C11.0241 17.4665 11.0241 17.6999 11.1149 17.8782C11.1948 18.035 11.3223 18.1624 11.4791 18.2423C11.6574 18.3332 11.8907 18.3332 12.3574 18.3332H15.0562C15.4955 18.3332 15.8745 18.3332 16.1866 18.3077C16.5161 18.2808 16.8437 18.2213 17.1591 18.0607C17.6295 17.821 18.0119 17.4386 18.2516 16.9681C18.4123 16.6528 18.4717 16.3252 18.4986 15.9957C18.5241 15.6836 18.5241 15.3046 18.5241 14.8653V12.1665C18.5241 11.6998 18.5241 11.4664 18.4333 11.2882C18.3534 11.1314 18.2259 11.0039 18.0691 10.924C17.8908 10.8332 17.6575 10.8332 17.1908 10.8332H12.3574C11.8907 10.8332 11.6574 10.8332 11.4791 10.924C11.3223 11.0039 11.1948 11.1314 11.1149 11.2882C11.0241 11.4664 11.0241 11.6998 11.0241 12.1665V16.9998Z" fill="#868C98"/>
<path d="M18.5241 7.83317C18.5241 8.29988 18.5241 8.53324 18.4333 8.7115C18.3534 8.8683 18.2259 8.99578 18.0691 9.07568C17.8908 9.1665 17.6575 9.1665 17.1908 9.1665H12.3574C11.8907 9.1665 11.6574 9.1665 11.4791 9.07568C11.3223 8.99578 11.1948 8.8683 11.1149 8.7115C11.0241 8.53324 11.0241 8.29988 11.0241 7.83317V2.99984C11.0241 2.53313 11.0241 2.29977 11.1149 2.12151C11.1948 1.96471 11.3223 1.83723 11.4791 1.75733C11.6574 1.6665 11.8907 1.6665 12.3574 1.6665H15.0562C15.4955 1.66649 15.8745 1.66648 16.1866 1.69198C16.5161 1.7189 16.8437 1.77833 17.1591 1.93899C17.6295 2.17867 18.0119 2.56112 18.2516 3.03153C18.4123 3.34685 18.4717 3.67453 18.4986 4.00398C18.5241 4.31612 18.5241 4.69508 18.5241 5.13437V7.83317Z" fill="#868C98"/>
</g>
</g>
</svg>
