<svg  height="100%" viewBox="0 0 122 32" fill="none" xmlns="http://www.w3.org/2000/svg">
<g clip-path="url(#clip0_3100_4345)">
<path d="M51.1106 12.8C50.854 12.3872 50.5081 12.0636 50.073 11.8404C49.6378 11.6173 49.1134 11.5057 48.522 11.5057C47.4174 11.5057 46.5583 11.8628 45.9223 12.5768C45.2863 13.2909 44.9739 14.2505 44.9739 15.4555C44.9739 16.8056 45.3087 17.8432 45.9893 18.5462C46.6699 19.2491 47.6518 19.6061 48.946 19.6061C50.4746 19.6061 51.5681 18.9144 52.2264 17.5308H47.8303V14.3844H55.9976V18.6243C55.6518 19.4611 55.1497 20.2421 54.4914 20.9674C53.8331 21.6926 52.9962 22.2951 51.9809 22.7637C50.9656 23.2324 49.8163 23.4667 48.522 23.4667C46.9488 23.4667 45.5541 23.1319 44.3379 22.4513C43.1218 21.7707 42.1845 20.8335 41.5262 19.6173C40.8679 18.4011 40.5332 17.0176 40.5332 15.4555C40.5332 13.8934 40.8679 12.5322 41.5262 11.316C42.1845 10.0999 43.1218 9.16262 44.3268 8.48201C45.5318 7.8014 46.9265 7.46667 48.4997 7.46667C50.4746 7.46667 52.1148 7.94644 53.4091 8.89484C54.7034 9.84324 55.5067 11.1487 55.8191 12.8H51.1106Z" fill="#7F56D9"/>
<path d="M62.3352 11.1264V13.6926H67.3561V17.0176H62.3352V19.8516H68.0256V23.3551H57.9614V7.62287H68.0256V11.1264H62.3352Z" fill="#7F56D9"/>
<path d="M84.7618 23.3551H80.388L74.5637 14.5629V23.3551H70.1899V7.62287H74.5637L80.388 16.5266V7.62287H84.7618V23.3551Z" fill="#7F56D9"/>
<path d="M96.9237 13.8042V17.4416H86.8149V13.8042H96.9237Z" fill="#7F56D9"/>
<path d="M110.112 20.7888H104.533L103.685 23.3551H99.0884L104.823 7.62287H109.867L115.579 23.3551H110.96L110.112 20.7888ZM109.019 17.4416L107.323 12.3537L105.649 17.4416H109.019Z" fill="#7F56D9"/>
<path d="M121.381 7.62287V23.3551H117.007V7.62287H121.381Z" fill="#7F56D9"/>
</g>
<g filter="url(#filter0_i_3100_4345)">
<rect width="32" height="32" rx="8" fill="#6E3FF3"/>
<rect width="32" height="32" rx="8" fill="white" fill-opacity="0.1"/>
<path d="M17.648 13.7436C17.8083 14.654 17.2001 15.5219 16.2896 15.6822C15.3792 15.8424 14.5113 15.2342 14.3511 14.3238C14.1909 13.4133 14.7991 12.5454 15.7095 12.3852C16.6199 12.225 17.4878 12.8332 17.648 13.7436Z" fill="url(#paint0_linear_3100_4345)" fill-opacity="0.88" stroke="url(#paint1_linear_3100_4345)"/>
<path d="M16.0002 5.33333C10.1184 5.33333 5.3335 10.1182 5.3335 16C5.3335 20.1809 7.75071 23.8067 11.2612 25.5541V21.8177C9.57238 20.44 8.49242 18.3435 8.49242 16C8.49242 11.8602 11.8603 8.49287 15.9996 8.49287C20.1388 8.49287 23.5067 11.8608 23.5067 16C23.5067 19.5974 20.962 22.6108 17.579 23.3386V17.7148H15.9996C15.1268 17.7148 14.4201 18.422 14.4201 19.2942V26.5489C14.9359 26.6268 15.4638 26.6667 15.9996 26.6667C21.8807 26.6667 26.6662 21.8818 26.6662 16C26.6662 10.1182 21.8813 5.33333 16.0002 5.33333Z" fill="url(#paint2_linear_3100_4345)"/>
<path d="M10.7612 24.7093C7.8093 22.9276 5.8335 19.6898 5.8335 16C5.8335 10.3944 10.3945 5.83333 16.0002 5.83333C21.6052 5.83333 26.1662 10.3944 26.1662 16C26.1662 21.6056 21.6046 26.1667 15.9996 26.1667C15.6352 26.1667 15.2749 26.1473 14.9201 26.1093V19.2942C14.9201 18.6981 15.403 18.2148 15.9996 18.2148H17.079V23.3386V23.9576L17.6842 23.8274C21.2921 23.0512 24.0067 19.8385 24.0067 16C24.0067 11.5846 20.4149 7.99287 15.9996 7.99287C11.5842 7.99287 7.99242 11.584 7.99242 16C7.99242 18.4143 9.06716 20.5823 10.7612 22.0505V24.7093Z" stroke="url(#paint3_linear_3100_4345)" stroke-opacity="0.6"/>
</g>
<defs>
<filter id="filter0_i_3100_4345" x="0" y="-4" width="32" height="36" filterUnits="userSpaceOnUse" color-interpolation-filters="sRGB">
<feFlood flood-opacity="0" result="BackgroundImageFix"/>
<feBlend mode="normal" in="SourceGraphic" in2="BackgroundImageFix" result="shape"/>
<feColorMatrix in="SourceAlpha" type="matrix" values="0 0 0 0 0 0 0 0 0 0 0 0 0 0 0 0 0 0 127 0" result="hardAlpha"/>
<feOffset dy="-4"/>
<feGaussianBlur stdDeviation="4"/>
<feComposite in2="hardAlpha" operator="arithmetic" k2="-1" k3="1"/>
<feColorMatrix type="matrix" values="0 0 0 0 1 0 0 0 0 1 0 0 0 0 1 0 0 0 0.44 0"/>
<feBlend mode="normal" in2="shape" result="effect1_innerShadow_3100_4345"/>
</filter>
<linearGradient id="paint0_linear_3100_4345" x1="15.6228" y1="11.8928" x2="16.7654" y2="18.3855" gradientUnits="userSpaceOnUse">
<stop offset="0.313079" stop-color="white"/>
<stop offset="1" stop-color="white" stop-opacity="0"/>
</linearGradient>
<linearGradient id="paint1_linear_3100_4345" x1="21.3519" y1="0.170365" x2="10.5522" y2="12.6074" gradientUnits="userSpaceOnUse">
<stop stop-color="white"/>
<stop offset="1" stop-color="white" stop-opacity="0"/>
</linearGradient>
<linearGradient id="paint2_linear_3100_4345" x1="15.9999" y1="5.33333" x2="15.9999" y2="37.6822" gradientUnits="userSpaceOnUse">
<stop offset="0.313079" stop-color="white"/>
<stop offset="1" stop-color="white" stop-opacity="0"/>
</linearGradient>
<linearGradient id="paint3_linear_3100_4345" x1="53.6541" y1="-46.4452" x2="-9.11349" y2="4.47319" gradientUnits="userSpaceOnUse">
<stop stop-color="white"/>
<stop offset="1" stop-color="white" stop-opacity="0"/>
</linearGradient>
<clipPath id="clip0_3100_4345">
<rect width="80.848" height="16" fill="white" transform="translate(40.5332 7.46667)"/>
</clipPath>
</defs>
</svg>
