<svg width="10" height="10" viewBox="0 0 10 10" fill="none" xmlns="http://www.w3.org/2000/svg">
<path fill-rule="evenodd" clip-rule="evenodd" d="M0 3.5C0 1.84315 1.34315 0.5 3 0.5H7C8.65685 0.5 10 1.84315 10 3.5V6.5C10 8.15685 8.65685 9.5 7 9.5H0.5C0.22386 9.5 0 9.27615 0 9V3.5ZM3.5 3.5C3.22386 3.5 3 3.72386 3 4C3 4.27615 3.22386 4.5 3.5 4.5H6.5C6.77615 4.5 7 4.27615 7 4C7 3.72386 6.77615 3.5 6.5 3.5H3.5ZM3.5 5.5C3.22386 5.5 3 5.72385 3 6C3 6.27615 3.22386 6.5 3.5 6.5H5C5.27615 6.5 5.5 6.27615 5.5 6C5.5 5.72385 5.27615 5.5 5 5.5H3.5Z" fill="#9CA3AF"/>
</svg>
