<svg width="56" height="56" viewBox="0 0 56 56" fill="none" xmlns="http://www.w3.org/2000/svg">
<path opacity="0.42" d="M51.3334 33.1333C51.3334 30.5198 51.3334 29.213 50.8247 28.2147C50.3773 27.3366 49.6634 26.6227 48.7853 26.1753C47.7871 25.6667 46.4803 25.6667 43.8667 25.6667H30.8C28.1865 25.6667 26.8797 25.6667 25.8814 26.1753C25.0033 26.6227 24.2894 27.3366 23.842 28.2147C23.3334 29.213 23.3334 30.5198 23.3334 33.1333V39C23.3334 41.6136 23.3334 42.9204 23.842 43.9186C24.2894 44.7967 25.0033 45.5106 25.8814 45.958C26.8797 46.4667 28.1865 46.4667 30.8 46.4667H34.9929C35.8623 46.4667 36.297 46.4667 36.7164 46.544C37.0886 46.6126 37.4511 46.7262 37.7958 46.8823C38.1843 47.0583 38.5412 47.3064 39.2551 47.8027L44.3334 51.3333V46.4667C46.5078 46.4667 47.595 46.4667 48.4526 46.1114C49.596 45.6378 50.5045 44.7293 50.9781 43.5859C51.3334 42.7283 51.3334 41.6411 51.3334 39.4667V33.1333Z" fill="#DAC1FF"/>
<path d="M23.3333 35L16.1577 42.2653C15.1568 43.2787 14.6563 43.7854 14.2262 43.8212C13.853 43.8522 13.4876 43.7021 13.2439 43.4178C12.9629 43.0901 12.9629 42.378 12.9629 40.9536V37.3138C12.9629 36.0359 11.9165 35.1113 10.6521 34.9261V34.9261C7.59203 34.4779 5.18877 32.0746 4.74053 29.0145C4.66663 28.51 4.66663 27.9079 4.66663 26.7037V15.8667C4.66663 11.9463 4.66663 9.98612 5.42958 8.48874C6.10069 7.1716 7.17156 6.10074 8.48869 5.42963C9.98607 4.66667 11.9463 4.66667 15.8666 4.66667H33.1333C37.0537 4.66667 39.0138 4.66667 40.5112 5.42963C41.8284 6.10074 42.8992 7.1716 43.5703 8.48874C44.3333 9.98612 44.3333 11.9463 44.3333 15.8667V25.6667M44.3333 51.3333L39.255 47.8027C38.5412 47.3064 38.1842 47.0583 37.7958 46.8823C37.451 46.7262 37.0885 46.6126 36.7163 46.544C36.2969 46.4667 35.8622 46.4667 34.9928 46.4667H30.8C28.1864 46.4667 26.8796 46.4667 25.8813 45.958C25.0032 45.5106 24.2893 44.7967 23.8419 43.9186C23.3333 42.9204 23.3333 41.6136 23.3333 39V33.1333C23.3333 30.5198 23.3333 29.213 23.8419 28.2147C24.2893 27.3366 25.0032 26.6227 25.8813 26.1753C26.8796 25.6667 28.1864 25.6667 30.8 25.6667H43.8666C46.4802 25.6667 47.787 25.6667 48.7852 26.1753C49.6633 26.6227 50.3772 27.3366 50.8247 28.2147C51.3333 29.213 51.3333 30.5198 51.3333 33.1333V39.4667C51.3333 41.6411 51.3333 42.7283 50.9781 43.5859C50.5044 44.7293 49.5959 45.6378 48.4525 46.1114C47.5949 46.4667 46.5077 46.4667 44.3333 46.4667V51.3333Z" stroke="white" stroke-width="3.5" stroke-linecap="round" stroke-linejoin="round"/>
</svg>
