<svg width="20" height="20" viewBox="0 0 20 20" fill="none" xmlns="http://www.w3.org/2000/svg">
<g id="microphone-01">
<g id="Solid">
<path fill-rule="evenodd" clip-rule="evenodd" d="M9.99967 0.833984C8.15873 0.833984 6.66634 2.32637 6.66634 4.16732V10.0007C6.66634 11.8416 8.15873 13.334 9.99967 13.334C11.8406 13.334 13.333 11.8416 13.333 10.0007V4.16732C13.333 2.32637 11.8406 0.833984 9.99967 0.833984Z" fill="currentColor"/>
<path d="M4.99967 8.33398C4.99967 7.87375 4.62658 7.50065 4.16634 7.50065C3.7061 7.50065 3.33301 7.87375 3.33301 8.33398V10.0007C3.33301 13.4009 5.87855 16.2065 9.1679 16.6159C9.16687 16.6329 9.16634 16.6501 9.16634 16.6673V17.5006H6.66634C6.2061 17.5006 5.83301 17.8737 5.83301 18.334C5.83301 18.7942 6.2061 19.1673 6.66634 19.1673H13.333C13.7932 19.1673 14.1663 18.7942 14.1663 18.334C14.1663 17.8737 13.7932 17.5006 13.333 17.5006H10.833V16.6673C10.833 16.6501 10.8325 16.6329 10.8314 16.6159C14.1208 16.2065 16.6663 13.4009 16.6663 10.0007V8.33398C16.6663 7.87375 16.2932 7.50065 15.833 7.50065C15.3728 7.50065 14.9997 7.87375 14.9997 8.33398V10.0007C14.9997 12.7621 12.7611 15.0006 9.99967 15.0006C7.23825 15.0006 4.99967 12.7621 4.99967 10.0007V8.33398Z" fill="currentColor"/>
</g>
</g>
</svg>
