<svg width="20" height="22" viewBox="0 0 20 22" fill="none" xmlns="http://www.w3.org/2000/svg">
<g id="Solid">
<path d="M9.00017 1.26203C9.00017 0.880653 8.59035 0.639683 8.25708 0.825099L1.68614 4.48085C1.34347 4.6715 1.34362 5.16442 1.68641 5.35486L8.25734 9.00543C8.59061 9.19058 9.00017 8.9496 9.00017 8.56836V1.26203Z" fill="#868C98"/>
<path d="M0.743313 7.11884C0.409974 6.93365 0.000344002 7.17478 0.000488319 7.5561L0.00318368 14.678C0.00332794 15.0592 0.412813 15.3 0.746005 15.1149L7.15432 11.5547C7.49722 11.3642 7.49722 10.8711 7.15432 10.6806L0.743313 7.11884Z" fill="#868C98"/>
<path d="M1.89272 16.7657C1.54981 16.9562 1.54981 17.4494 1.89272 17.6399L8.25735 21.1758C8.59061 21.361 9.00017 21.12 9.00017 20.7387V13.6669C9.00017 13.2857 8.59061 13.0447 8.25735 13.2298L1.89272 16.7657Z" fill="#868C98"/>
<path d="M11.0002 20.7387C11.0002 21.12 11.4097 21.361 11.743 21.1758L18.1076 17.6399C18.4505 17.4494 18.4505 16.9562 18.1076 16.7657L11.743 13.2298C11.4097 13.0447 11.0002 13.2857 11.0002 13.6669V20.7387Z" fill="#868C98"/>
<path d="M19.2543 15.1149C19.5875 15.3 19.997 15.0592 19.9972 14.678L19.9998 7.5561C20 7.17478 19.5904 6.93365 19.257 7.11884L12.846 10.6806C12.5031 10.8711 12.5031 11.3642 12.846 11.5547L19.2543 15.1149Z" fill="#868C98"/>
<path d="M18.3139 5.35486C18.6567 5.16442 18.6569 4.6715 18.3142 4.48085L11.7433 0.825096C11.41 0.63968 11.0002 0.880651 11.0002 1.26203V8.56836C11.0002 8.9496 11.4097 9.19058 11.743 9.00543L18.3139 5.35486Z" fill="#868C98"/>
</g>
</svg>
