<svg width="16" height="16" viewBox="0 0 16 16" fill="none" xmlns="http://www.w3.org/2000/svg">
<path d="M14.7468 6.54871C15.1098 5.45919 14.9848 4.26566 14.4043 3.27464C13.5313 1.75461 11.7763 0.972596 10.0622 1.3406C9.2997 0.481584 8.20421 -0.00692593 7.05566 7.42131e-05C5.30362 -0.00392587 3.74909 1.12409 3.21008 2.79113C2.08455 3.02163 1.11303 3.72615 0.544521 4.72467C-0.334997 6.2407 -0.134493 8.15178 1.04053 9.45177C0.677524 10.5413 0.802531 11.7348 1.38304 12.7258C2.25606 14.2459 4.0111 15.0279 5.72513 14.6598C6.48714 15.5189 7.58319 16.0074 8.7317 15.9999C10.4847 16.0044 12.0398 14.8754 12.5788 13.2068C13.7043 12.9764 14.6758 12.2718 15.2444 11.2733C16.1228 9.7573 15.9218 7.8477 14.7473 6.54771L14.7468 6.54871ZM8.73272 14.9544C8.03119 14.9554 7.35163 14.7099 6.81315 14.2604C6.83765 14.2473 6.88015 14.2238 6.90765 14.2069L10.0937 12.3668C10.2567 12.2743 10.3567 12.1008 10.3557 11.9133V7.42174L11.7022 8.19927C11.7167 8.20625 11.7262 8.22021 11.7283 8.23621V11.9558C11.7262 13.6099 10.3868 14.9509 8.73272 14.9544ZM2.29056 12.2028C1.93905 11.5958 1.81254 10.8843 1.93305 10.1938C1.95655 10.2078 1.99805 10.2333 2.02755 10.2503L5.21362 12.0903C5.37512 12.1848 5.57512 12.1848 5.73713 12.0903L9.62668 9.84428V11.3993C9.6277 11.4153 9.62021 11.4308 9.6077 11.4408L6.38714 13.3004C4.95261 14.1264 3.12007 13.6353 2.29056 12.2028ZM1.45204 5.24818C1.80205 4.64017 2.35456 4.17516 3.01257 3.93366C3.01257 3.96115 3.01107 4.00965 3.01107 4.04365V7.72421C3.01007 7.91127 3.11008 8.08472 3.27258 8.17723L7.16216 10.4228L5.81563 11.2003C5.80213 11.2093 5.78513 11.2108 5.77013 11.2043L2.54906 9.34327C1.11753 8.51425 0.627025 6.68222 1.45204 5.24818ZM12.5153 7.82276L8.62567 5.57669L9.97221 4.79968C9.98574 4.79067 10.0027 4.78917 10.0177 4.79568L13.2388 6.65521C14.6728 7.4837 15.1644 9.31825 14.3358 10.7523C13.9853 11.3593 13.4333 11.8243 12.7758 12.0663V8.27577C12.7773 8.08872 12.6773 7.9157 12.5153 7.82276ZM13.8553 5.8057C13.8318 5.7912 13.7903 5.76619 13.7608 5.7492L10.5748 3.90915C10.4132 3.81465 10.2132 3.81465 10.0512 3.90915L6.16164 6.1552V4.60017C6.16064 4.58417 6.16814 4.56867 6.18063 4.55867L9.40123 2.70063C10.8357 1.87311 12.6697 2.36562 13.4968 3.80065C13.8463 4.40667 13.9728 5.11618 13.8543 5.8057H13.8553ZM5.42963 8.57723L4.08259 7.7997C4.06809 7.79272 4.05859 7.77876 4.05659 7.76276V4.04316C4.0576 2.38713 5.40112 1.0451 7.05716 1.04609C7.75767 1.04609 8.4357 1.2921 8.97418 1.74011C8.94967 1.75311 8.9077 1.77661 8.8797 1.79361L5.69362 3.63365C5.53062 3.72615 5.43062 3.89915 5.43163 4.08666L5.42963 8.57628V8.57723ZM6.16114 7.00022L7.89367 5.9997L9.62617 6.99972V9.00028L7.89367 10.0003L6.16114 9.00028V7.00022Z" fill="black"/>
</svg>
