<svg width="16" height="16" viewBox="0 0 16 16" fill="none" xmlns="http://www.w3.org/2000/svg">
<path fill-rule="evenodd" clip-rule="evenodd" d="M8.00033 0.666016C3.95024 0.666016 0.666992 3.94926 0.666992 7.99935C0.666992 12.0494 3.95024 15.3327 8.00033 15.3327C12.0504 15.3327 15.3337 12.0494 15.3337 7.99935C15.3337 3.94926 12.0504 0.666016 8.00033 0.666016ZM7.00033 5.99935C7.00033 5.63116 6.70185 5.33268 6.33366 5.33268C5.96547 5.33268 5.66699 5.63116 5.66699 5.99935V9.99935C5.66699 10.3675 5.96547 10.666 6.33366 10.666C6.70185 10.666 7.00033 10.3675 7.00033 9.99935V5.99935ZM10.3337 5.99935C10.3337 5.63116 10.0352 5.33268 9.66699 5.33268C9.2988 5.33268 9.00033 5.63116 9.00033 5.99935V9.99935C9.00033 10.3675 9.2988 10.666 9.66699 10.666C10.0352 10.666 10.3337 10.3675 10.3337 9.99935V5.99935Z" fill="#667085"/>
</svg>
