<svg width="25" height="24" viewBox="0 0 25 24" fill="none" xmlns="http://www.w3.org/2000/svg">
<path d="M5.94995 4C5.94995 2.20508 7.40503 0.75 9.19995 0.75H17.1893L23.65 7.21066V20C23.65 21.7949 22.1949 23.25 20.4 23.25H9.19995C7.40502 23.25 5.94995 21.7949 5.94995 20V4Z" stroke="#D0D5DD" stroke-width="1.5"/>
<path d="M17.2002 0.299805V3.1998C17.2002 5.40894 18.9911 7.1998 21.2002 7.1998H24.1002" stroke="#D0D5DD" stroke-width="1.5"/>
<path d="M0.399902 12.0996C0.399902 10.995 1.29533 10.0996 2.3999 10.0996H16.3999C17.5045 10.0996 18.3999 10.995 18.3999 12.0996V19.0996C18.3999 20.2042 17.5045 21.0996 16.3999 21.0996H2.3999C1.29533 21.0996 0.399902 20.2042 0.399902 19.0996V12.0996Z" fill="#D92D20"/>
<path d="M3.89928 18.0996V13.736H5.62087C5.95184 13.736 6.2338 13.7992 6.46675 13.9256C6.69971 14.0506 6.87726 14.2246 6.99942 14.4476C7.123 14.6692 7.18479 14.9249 7.18479 15.2147C7.18479 15.5044 7.12229 15.7601 6.99729 15.9817C6.87229 16.2033 6.69118 16.3759 6.45397 16.4995C6.21817 16.623 5.93266 16.6848 5.59743 16.6848H4.50013V15.9455H5.44829C5.62584 15.9455 5.77215 15.915 5.88721 15.8539C6.00368 15.7914 6.09033 15.7054 6.14715 15.5961C6.20539 15.4853 6.23451 15.3581 6.23451 15.2147C6.23451 15.0698 6.20539 14.9434 6.14715 14.8354C6.09033 14.726 6.00368 14.6415 5.88721 14.5819C5.77073 14.5208 5.623 14.4902 5.44403 14.4902H4.82187V18.0996H3.89928ZM9.33092 18.0996H7.78405V13.736H9.34371C9.78263 13.736 10.1605 13.8233 10.4772 13.998C10.794 14.1713 11.0376 14.4206 11.2081 14.7459C11.3799 15.0712 11.4659 15.4604 11.4659 15.9135C11.4659 16.3681 11.3799 16.7587 11.2081 17.0854C11.0376 17.4121 10.7926 17.6628 10.473 17.8375C10.1548 18.0123 9.7741 18.0996 9.33092 18.0996ZM8.70663 17.3091H9.29257C9.5653 17.3091 9.7947 17.2608 9.98078 17.1642C10.1683 17.0662 10.3089 16.915 10.4027 16.7104C10.4978 16.5044 10.5454 16.2388 10.5454 15.9135C10.5454 15.5911 10.4978 15.3276 10.4027 15.123C10.3089 14.9185 10.169 14.7679 9.98291 14.6713C9.79683 14.5748 9.56743 14.5265 9.2947 14.5265H8.70663V17.3091ZM12.1493 18.0996V13.736H15.0385V14.4966H13.0719V15.5364H14.8467V16.2971H13.0719V18.0996H12.1493Z" fill="white"/>
</svg>
