<svg width="56" height="56" viewBox="0 0 56 56" fill="none" xmlns="http://www.w3.org/2000/svg">
<path opacity="0.42" d="M22.1666 20.9192C22.1666 19.8055 22.1666 19.2487 22.3994 18.9378C22.6022 18.6669 22.9126 18.4974 23.2502 18.4733C23.6375 18.4456 24.1059 18.7468 25.0427 19.349L36.0574 26.4299C36.8703 26.9524 37.2768 27.2137 37.4172 27.546C37.5398 27.8363 37.5398 28.1639 37.4172 28.4542C37.2768 28.7864 36.8703 29.0477 36.0574 29.5703L25.0427 36.6512C24.1059 37.2534 23.6375 37.5545 23.2502 37.5268C22.9126 37.5027 22.6022 37.3332 22.3994 37.0623C22.1666 36.7515 22.1666 36.1946 22.1666 35.081V20.9192Z" fill="#DAC1FF"/>
<path d="M22.1667 20.9191C22.1667 19.8054 22.1667 19.2486 22.3994 18.9377C22.6022 18.6668 22.9127 18.4973 23.2502 18.4732C23.6376 18.4456 24.106 18.7467 25.0427 19.3489L36.0575 26.4298C36.8704 26.9524 37.2768 27.2137 37.4172 27.5459C37.5399 27.8362 37.5399 28.1638 37.4172 28.4541C37.2768 28.7863 36.8704 29.0476 36.0575 29.5702L25.0427 36.6511C24.106 37.2533 23.6376 37.5544 23.2502 37.5268C22.9127 37.5026 22.6022 37.3332 22.3994 37.0623C22.1667 36.7514 22.1667 36.1946 22.1667 35.0809V20.9191Z" stroke="white" stroke-width="3.5" stroke-linecap="round" stroke-linejoin="round"/>
<path d="M7 18.2C7 14.2796 7 12.3194 7.76295 10.8221C8.43407 9.50493 9.50493 8.43407 10.8221 7.76295C12.3194 7 14.2796 7 18.2 7H37.8C41.7204 7 43.6805 7 45.1779 7.76295C46.4951 8.43407 47.5659 9.50493 48.237 10.8221C49 12.3194 49 14.2796 49 18.2V37.8C49 41.7204 49 43.6805 48.237 45.1779C47.5659 46.4951 46.4951 47.5659 45.1779 48.237C43.6805 49 41.7204 49 37.8 49H18.2C14.2796 49 12.3194 49 10.8221 48.237C9.50493 47.5659 8.43407 46.4951 7.76295 45.1779C7 43.6805 7 41.7204 7 37.8V18.2Z" stroke="white" stroke-width="3.5" stroke-linecap="round" stroke-linejoin="round"/>
</svg>
