<svg width="20" height="20" viewBox="0 0 20 20" fill="none" xmlns="http://www.w3.org/2000/svg">
<path fill-rule="evenodd" clip-rule="evenodd" d="M14.8654 1.66669H5.13451C4.69523 1.66667 4.31624 1.66666 4.0041 1.69216C3.67465 1.71908 3.34697 1.77851 3.03165 1.93917C2.56125 2.17886 2.1788 2.56131 1.93911 3.03171C1.77845 3.34703 1.71902 3.67471 1.6921 4.00417C1.6666 4.3163 1.66661 4.69526 1.66663 5.13454V14.8655C1.66661 15.3048 1.6666 15.6837 1.6921 15.9959C1.71902 16.3253 1.77845 16.653 1.93911 16.9683C2.1788 17.4387 2.56125 17.8212 3.03165 18.0609C3.34697 18.2215 3.67465 18.281 4.0041 18.3079C4.31624 18.3334 4.69521 18.3334 5.13449 18.3334H14.8654C15.3047 18.3334 15.6837 18.3334 15.9958 18.3079C16.3253 18.281 16.653 18.2215 16.9683 18.0609C17.4387 17.8212 17.8211 17.4387 18.0608 16.9683C18.2215 16.653 18.2809 16.3253 18.3078 15.9959C18.3333 15.6837 18.3333 15.3048 18.3333 14.8655V5.13455C18.3333 4.69527 18.3333 4.3163 18.3078 4.00417C18.2809 3.67471 18.2215 3.34703 18.0608 3.03171C17.8211 2.56131 17.4387 2.17886 16.9683 1.93917C16.653 1.77851 16.3253 1.71908 15.9958 1.69216C15.6837 1.66666 15.3047 1.66667 14.8654 1.66669ZM9.99996 5.83335C10.4602 5.83335 10.8333 6.20645 10.8333 6.66669V9.16669H13.3333C13.7935 9.16669 14.1666 9.53978 14.1666 10C14.1666 10.4603 13.7935 10.8334 13.3333 10.8334H10.8333V13.3334C10.8333 13.7936 10.4602 14.1667 9.99996 14.1667C9.53972 14.1667 9.16663 13.7936 9.16663 13.3334V10.8334H6.66663C6.20639 10.8334 5.83329 10.4603 5.83329 10C5.83329 9.53978 6.20639 9.16669 6.66663 9.16669H9.16663V6.66669C9.16663 6.20645 9.53972 5.83335 9.99996 5.83335Z" fill="#7F56D9"/>
</svg>
