<svg width="20" height="20" viewBox="0 0 20 20" fill="none" xmlns="http://www.w3.org/2000/svg">
<g id="plus">
<path id="Solid" d="M10.8333 4.16666C10.8333 3.70642 10.4602 3.33333 9.99992 3.33333C9.53968 3.33333 9.16659 3.70642 9.16659 4.16666V9.16666H4.16659C3.70635 9.16666 3.33325 9.53976 3.33325 9.99999C3.33325 10.4602 3.70635 10.8333 4.16659 10.8333H9.16659V15.8333C9.16659 16.2936 9.53968 16.6667 9.99992 16.6667C10.4602 16.6667 10.8333 16.2936 10.8333 15.8333V10.8333H15.8333C16.2935 10.8333 16.6666 10.4602 16.6666 9.99999C16.6666 9.53976 16.2935 9.16666 15.8333 9.16666H10.8333V4.16666Z" fill="white"/>
</g>
</svg>
