<svg width="14" height="12" viewBox="0 0 14 12" fill="none" xmlns="http://www.w3.org/2000/svg">
<path id="&#226;&#128;&#156;" d="M12.3634 6.90118C13.0849 6.90118 13.4457 7.26195 13.4457 7.98348V10.9177C13.4457 11.6392 13.0849 12 12.3634 12H9.57345C8.85192 12 8.49116 11.6392 8.49116 10.9177V7.98348C8.49116 6.29991 8.66753 4.8328 9.02028 3.58214C9.38906 2.31546 10.1026 1.20911 11.1608 0.263104C11.5136 -0.0415427 11.8102 -0.0816277 12.0507 0.142848L13.133 1.15299C13.3735 1.37747 13.3174 1.65005 12.9646 1.97073C12.4195 2.45175 11.9705 3.14923 11.6178 4.06316C11.2811 4.96107 11.1127 5.90708 11.1127 6.90118H12.3634ZM4.42653 6.90118C5.14807 6.90118 5.50883 7.26195 5.50883 7.98348V10.9177C5.50883 11.6392 5.14807 12 4.42653 12H1.63662C0.915087 12 0.554321 11.6392 0.554321 10.9177V7.98348C0.554321 6.29991 0.730695 4.8328 1.08344 3.58214C1.45223 2.31546 2.16574 1.20911 3.22398 0.263104C3.57673 -0.0415427 3.87336 -0.0816277 4.11387 0.142848L5.19617 1.15299C5.43668 1.37747 5.38056 1.65005 5.02781 1.97073C4.48265 2.45175 4.0337 3.14923 3.68095 4.06316C3.34424 4.96107 3.17588 5.90708 3.17588 6.90118H4.42653Z" fill="#FD853A"/>
</svg>
