<svg width="16" height="16" viewBox="0 0 16 16" fill="none" xmlns="http://www.w3.org/2000/svg">
<g id="search-sm">
<path id="Solid" fill-rule="evenodd" clip-rule="evenodd" d="M6.66659 1.3335C3.72107 1.3335 1.33325 3.72131 1.33325 6.66683C1.33325 9.61235 3.72107 12.0002 6.66659 12.0002C7.89906 12.0002 9.03389 11.5821 9.93702 10.8801L13.5285 14.4716C13.7889 14.7319 14.211 14.7319 14.4713 14.4716C14.7317 14.2112 14.7317 13.7891 14.4713 13.5288L10.8798 9.93726C11.5819 9.03414 11.9999 7.8993 11.9999 6.66683C11.9999 3.72131 9.6121 1.3335 6.66659 1.3335ZM2.66659 6.66683C2.66659 4.45769 4.45745 2.66683 6.66659 2.66683C8.87572 2.66683 10.6666 4.45769 10.6666 6.66683C10.6666 8.87597 8.87572 10.6668 6.66659 10.6668C4.45745 10.6668 2.66659 8.87597 2.66659 6.66683Z" fill="#868C98"/>
</g>
</svg>
