<svg width="17" height="17" viewBox="0 0 17 17" fill="none" xmlns="http://www.w3.org/2000/svg">
<g id="settings-01">
<g id="Icon">
<path d="M8.49992 10.5C9.60449 10.5 10.4999 9.60458 10.4999 8.50001C10.4999 7.39544 9.60449 6.50001 8.49992 6.50001C7.39535 6.50001 6.49992 7.39544 6.49992 8.50001C6.49992 9.60458 7.39535 10.5 8.49992 10.5Z" stroke="#667085" stroke-width="1.2" stroke-linecap="round" stroke-linejoin="round"/>
<path d="M12.9848 10.3182C12.9041 10.501 12.88 10.7038 12.9157 10.9004C12.9513 11.097 13.045 11.2784 13.1848 11.4212L13.2211 11.4576C13.3338 11.5702 13.4232 11.7038 13.4842 11.851C13.5452 11.9981 13.5766 12.1559 13.5766 12.3152C13.5766 12.4745 13.5452 12.6322 13.4842 12.7793C13.4232 12.9265 13.3338 13.0602 13.2211 13.1727C13.1086 13.2854 12.9749 13.3748 12.8277 13.4358C12.6806 13.4968 12.5228 13.5282 12.3636 13.5282C12.2043 13.5282 12.0465 13.4968 11.8994 13.4358C11.7522 13.3748 11.6186 13.2854 11.506 13.1727L11.4696 13.1364C11.3268 12.9967 11.1454 12.9029 10.9488 12.8673C10.7522 12.8316 10.5494 12.8557 10.3666 12.9364C10.1873 13.0132 10.0345 13.1408 9.92677 13.3034C9.81909 13.466 9.7613 13.6565 9.76052 13.8515V13.9546C9.76052 14.276 9.63282 14.5843 9.4055 14.8117C9.17819 15.039 8.86988 15.1667 8.5484 15.1667C8.22693 15.1667 7.91862 15.039 7.6913 14.8117C7.46399 14.5843 7.33628 14.276 7.33628 13.9546V13.9C7.33159 13.6994 7.26666 13.5049 7.14993 13.3416C7.03319 13.1784 6.87006 13.0541 6.68174 12.9849C6.49894 12.9042 6.29617 12.8801 6.09956 12.9158C5.90296 12.9514 5.72154 13.0451 5.57871 13.1849L5.54234 13.2212C5.42977 13.3339 5.29609 13.4233 5.14894 13.4843C5.00179 13.5453 4.84406 13.5767 4.68477 13.5767C4.52548 13.5767 4.36775 13.5453 4.2206 13.4843C4.07345 13.4233 3.93976 13.3339 3.82719 13.2212C3.71449 13.1087 3.62509 12.975 3.56409 12.8278C3.50309 12.6807 3.47169 12.5229 3.47169 12.3636C3.47169 12.2044 3.50309 12.0466 3.56409 11.8995C3.62509 11.7523 3.71449 11.6186 3.82719 11.5061L3.86356 11.4697C4.00327 11.3269 4.097 11.1455 4.13265 10.9489C4.1683 10.7522 4.14423 10.5495 4.06355 10.3667C3.98673 10.1874 3.85916 10.0345 3.69656 9.92686C3.53396 9.81918 3.34343 9.76139 3.1484 9.76062H3.04537C2.7239 9.76062 2.41559 9.63291 2.18827 9.40559C1.96096 9.17828 1.83325 8.86997 1.83325 8.5485C1.83325 8.22702 1.96096 7.91871 2.18827 7.6914C2.41559 7.46408 2.7239 7.33637 3.04537 7.33637H3.09992C3.30052 7.33168 3.49507 7.26675 3.65828 7.15002C3.82149 7.03328 3.94581 6.87015 4.01507 6.68183C4.09575 6.49903 4.11981 6.29626 4.08416 6.09965C4.04852 5.90305 3.95479 5.72163 3.81507 5.5788L3.77871 5.54243C3.66601 5.42986 3.5766 5.29618 3.5156 5.14903C3.4546 5.00188 3.42321 4.84415 3.42321 4.68486C3.42321 4.52557 3.4546 4.36784 3.5156 4.22069C3.5766 4.07354 3.66601 3.93986 3.77871 3.82728C3.89128 3.71458 4.02496 3.62518 4.17211 3.56418C4.31926 3.50318 4.47699 3.47178 4.63628 3.47178C4.79557 3.47178 4.9533 3.50318 5.10045 3.56418C5.2476 3.62518 5.38128 3.71458 5.49386 3.82728L5.53022 3.86365C5.67306 4.00337 5.85447 4.09709 6.05108 4.13274C6.24768 4.16839 6.45045 4.14432 6.63325 4.06365H6.68174C6.86099 3.98682 7.01387 3.85926 7.12155 3.69666C7.22923 3.53406 7.28702 3.34352 7.2878 3.1485V3.04546C7.2878 2.72399 7.4155 2.41568 7.64282 2.18837C7.87014 1.96105 8.17844 1.83334 8.49992 1.83334C8.82139 1.83334 9.1297 1.96105 9.35702 2.18837C9.58433 2.41568 9.71204 2.72399 9.71204 3.04546V3.10001C9.71282 3.29503 9.77061 3.48557 9.87829 3.64817C9.98597 3.81077 10.1388 3.93834 10.3181 4.01516C10.5009 4.09584 10.7037 4.1199 10.9003 4.08426C11.0969 4.04861 11.2783 3.95488 11.4211 3.81516L11.4575 3.7788C11.5701 3.6661 11.7038 3.57669 11.8509 3.5157C11.9981 3.4547 12.1558 3.4233 12.3151 3.4233C12.4744 3.4233 12.6321 3.4547 12.7792 3.5157C12.9264 3.57669 13.0601 3.6661 13.1726 3.7788C13.2853 3.89137 13.3748 4.02505 13.4357 4.1722C13.4967 4.31935 13.5281 4.47708 13.5281 4.63637C13.5281 4.79567 13.4967 4.95339 13.4357 5.10054C13.3748 5.24769 13.2853 5.38138 13.1726 5.49395L13.1363 5.53031C12.9966 5.67315 12.9028 5.85457 12.8672 6.05117C12.8315 6.24777 12.8556 6.45055 12.9363 6.63334V6.68183C13.0131 6.86108 13.1407 7.01396 13.3033 7.12164C13.4659 7.22932 13.6564 7.28711 13.8514 7.28789H13.9545C14.2759 7.28789 14.5842 7.41559 14.8116 7.64291C15.0389 7.87023 15.1666 8.17854 15.1666 8.50001C15.1666 8.82148 15.0389 9.12979 14.8116 9.35711C14.5842 9.58443 14.2759 9.71213 13.9545 9.71213H13.8999C13.7049 9.71291 13.5144 9.7707 13.3518 9.87838C13.1892 9.98606 13.0616 10.1389 12.9848 10.3182Z" stroke="#667085" stroke-width="1.2" stroke-linecap="round" stroke-linejoin="round"/>
</g>
</g>
</svg>
