<svg width="16" height="16" viewBox="0 0 16 16" fill="none" xmlns="http://www.w3.org/2000/svg">
<path d="M1.33301 12.6666C1.33301 12.2984 1.63149 12 1.99968 12H4.66635C5.03454 12 5.33301 12.2984 5.33301 12.6666C5.33301 13.0348 5.03454 13.3333 4.66635 13.3333H1.99968C1.63149 13.3333 1.33301 13.0348 1.33301 12.6666Z" fill="#155EEF"/>
<path fill-rule="evenodd" clip-rule="evenodd" d="M10.5522 12.0004C10.2776 11.2236 9.53683 10.667 8.66602 10.667C7.56145 10.667 6.66602 11.5625 6.66602 12.667C6.66602 13.7716 7.56145 14.667 8.66602 14.667C9.53683 14.667 10.2776 14.1105 10.5522 13.3337H13.9993C14.3675 13.3337 14.666 13.0352 14.666 12.667C14.666 12.2988 14.3675 12.0004 13.9993 12.0004H10.5522Z" fill="#155EEF"/>
<path d="M9.99968 7.33301C9.63149 7.33301 9.33301 7.63149 9.33301 7.99968C9.33301 8.36787 9.63149 8.66635 9.99968 8.66635H13.9997C14.3679 8.66635 14.6664 8.36787 14.6664 7.99968C14.6664 7.63149 14.3679 7.33301 13.9997 7.33301H9.99968Z" fill="#155EEF"/>
<path fill-rule="evenodd" clip-rule="evenodd" d="M1.33301 8C1.33301 7.63181 1.63149 7.33333 1.99968 7.33333H4.11348C4.38804 6.55654 5.12887 6 5.99968 6C7.10425 6 7.99968 6.89543 7.99968 8C7.99968 9.10457 7.10425 10 5.99968 10C5.12887 10 4.38804 9.44346 4.11348 8.66667H1.99968C1.63149 8.66667 1.33301 8.36819 1.33301 8Z" fill="#155EEF"/>
<path fill-rule="evenodd" clip-rule="evenodd" d="M10 1.33301C10.8708 1.33301 11.6117 1.88955 11.8862 2.66635H14C14.3682 2.66635 14.6667 2.96482 14.6667 3.33301C14.6667 3.7012 14.3682 3.99968 14 3.99968H11.8862C11.6117 4.77647 10.8708 5.33301 10 5.33301C8.89543 5.33301 8 4.43758 8 3.33301C8 2.22844 8.89543 1.33301 10 1.33301Z" fill="#155EEF"/>
<path d="M1.33301 3.33365C1.33301 2.96546 1.63149 2.66699 1.99968 2.66699H5.99968C6.36787 2.66699 6.66635 2.96546 6.66635 3.33365C6.66635 3.70184 6.36787 4.00032 5.99968 4.00032H1.99968C1.63149 4.00032 1.33301 3.70184 1.33301 3.33365Z" fill="#155EEF"/>
</svg>
