<svg width="56" height="56" viewBox="0 0 56 56" fill="none" xmlns="http://www.w3.org/2000/svg">
<path opacity="0.42" d="M49 21V18.2C49 14.2796 49 12.3194 48.237 10.8221C47.5659 9.50493 46.4951 8.43407 45.1779 7.76296C43.6805 7 41.7204 7 37.8 7L18.2 7C14.2796 7 12.3194 7 10.8221 7.76295C9.50493 8.43407 8.43407 9.50493 7.76295 10.8221C7 12.3194 7 14.2796 7 18.2L7 21L49 21Z" fill="#DAC1FF"/>
<path d="M7 21L49 21M21 7L21 49M18.2 7H37.8C41.7204 7 43.6806 7 45.1779 7.76295C46.4951 8.43407 47.5659 9.50493 48.237 10.8221C49 12.3194 49 14.2796 49 18.2V37.8C49 41.7204 49 43.6806 48.237 45.1779C47.5659 46.4951 46.4951 47.5659 45.1779 48.237C43.6806 49 41.7204 49 37.8 49H18.2C14.2796 49 12.3194 49 10.8221 48.237C9.50493 47.5659 8.43407 46.4951 7.76295 45.1779C7 43.6806 7 41.7204 7 37.8V18.2C7 14.2796 7 12.3194 7.76295 10.8221C8.43407 9.50493 9.50493 8.43407 10.8221 7.76295C12.3194 7 14.2796 7 18.2 7Z" stroke="white" stroke-width="3.5" stroke-linecap="round" stroke-linejoin="round"/>
</svg>
