<svg width="40" height="40" viewBox="0 0 40 40" fill="none" xmlns="http://www.w3.org/2000/svg">
<path fill-rule="evenodd" clip-rule="evenodd" d="M12.9312 3.33325H27.0689C28.4105 3.33323 29.5178 3.33322 30.4198 3.40691C31.3566 3.48345 32.2178 3.64773 33.0266 4.05988C34.2811 4.69903 35.3009 5.7189 35.9401 6.97332C36.3522 7.78221 36.5165 8.64338 36.5931 9.58021C36.6667 10.4822 36.6667 11.5894 36.6667 12.931V27.0688C36.6667 28.4104 36.6667 29.5176 36.5931 30.4196C36.5165 31.3565 36.3522 32.2176 35.9401 33.0265C35.3009 34.2809 34.2811 35.3008 33.0266 35.94C32.2178 36.3521 31.3566 36.5164 30.4198 36.5929C29.5178 36.6666 28.4105 36.6666 27.0689 36.6666H12.9312C11.5896 36.6666 10.4823 36.6666 9.58033 36.5929C8.64351 36.5164 7.78233 36.3521 6.97344 35.94C5.71903 35.3008 4.69916 34.2809 4.06 33.0265C3.64785 32.2176 3.48357 31.3565 3.40703 30.4196C3.33334 29.5177 3.33335 28.4104 3.33337 27.0688V12.9311C3.33335 11.5895 3.33334 10.4822 3.40703 9.58021C3.48357 8.64338 3.64785 7.78221 4.06 6.97332C4.69916 5.7189 5.71903 4.69903 6.97344 4.05988C7.78233 3.64773 8.64351 3.48345 9.58033 3.40691C10.4823 3.33322 11.5896 3.33323 12.9312 3.33325ZM11.6667 11.6666C11.6667 10.7461 12.4129 9.99992 13.3334 9.99992H26.6667C27.5872 9.99992 28.3334 10.7461 28.3334 11.6666C28.3334 12.5871 27.5872 13.3333 26.6667 13.3333H21.6667V28.3333C21.6667 29.2537 20.9205 29.9999 20 29.9999C19.0796 29.9999 18.3334 29.2537 18.3334 28.3333V13.3333H13.3334C12.4129 13.3333 11.6667 12.5871 11.6667 11.6666Z" fill="#868C98"/>
</svg>
