<svg width="16" height="16" viewBox="0 0 16 16" fill="none" xmlns="http://www.w3.org/2000/svg">
<path fill-rule="evenodd" clip-rule="evenodd" d="M1.66699 11.6666C1.66699 11.2985 1.96546 11 2.33365 11H6.00032C6.36851 11 6.66699 11.2985 6.66699 11.6666C6.66699 12.0348 6.36851 12.3333 6.00032 12.3333H2.33365C1.96546 12.3333 1.66699 12.0348 1.66699 11.6666Z" fill="#7839EE"/>
<path fill-rule="evenodd" clip-rule="evenodd" d="M0.666016 7.99967C0.666016 7.63148 0.964493 7.33301 1.33268 7.33301H4.33268C4.70087 7.33301 4.99935 7.63148 4.99935 7.99967C4.99935 8.36786 4.70087 8.66634 4.33268 8.66634H1.33268C0.964493 8.66634 0.666016 8.36786 0.666016 7.99967Z" fill="#7839EE"/>
<path fill-rule="evenodd" clip-rule="evenodd" d="M2 4.33366C2 3.96547 2.29848 3.66699 2.66667 3.66699H6C6.36819 3.66699 6.66667 3.96547 6.66667 4.33366C6.66667 4.70185 6.36819 5.00032 6 5.00032H2.66667C2.29848 5.00032 2 4.70185 2 4.33366Z" fill="#7839EE"/>
<path fill-rule="evenodd" clip-rule="evenodd" d="M11.5787 1.37974C11.8634 1.49229 12.0349 1.78434 11.9944 2.08784L11.4284 6.33307H13.9639C13.9716 6.33307 13.9792 6.33307 13.9869 6.33306C14.1341 6.33303 14.2866 6.333 14.4126 6.34452C14.5365 6.35585 14.762 6.38588 14.9635 6.54143C15.1986 6.72284 15.3409 6.99931 15.3519 7.29601C15.3613 7.55043 15.2547 7.75136 15.1919 7.8588C15.128 7.96801 15.0393 8.0921 14.9538 8.21183C14.9493 8.21809 14.9448 8.22433 14.9404 8.23055L10.5428 14.3873C10.3648 14.6364 10.04 14.7323 9.75523 14.6198C9.47047 14.5072 9.29899 14.2152 9.33946 13.9117L9.90549 9.6664H7.36998C7.36233 9.6664 7.35467 9.6664 7.34699 9.6664C7.19982 9.66644 7.0473 9.66647 6.92131 9.65495C6.79737 9.64362 6.5719 9.61359 6.37035 9.45804C6.13531 9.27663 5.99303 9.00016 5.98203 8.70346C5.9726 8.44904 6.07921 8.24811 6.14203 8.14067C6.20589 8.03146 6.29457 7.90736 6.38013 7.78763C6.3846 7.78138 6.38906 7.77514 6.3935 7.76891L10.7911 1.61224C10.9691 1.36308 11.2939 1.26719 11.5787 1.37974Z" fill="#7839EE"/>
</svg>
